{
    "asset" : {
        "generator" : "Khronos glTF Blender I/O v1.6.16",
        "version" : "2.0"
    },
    "scene" : 0,
    "scenes" : [
        {
            "name" : "Scene",
            "nodes" : [
                7
            ]
        }
    ],
    "nodes" : [
        {
            "name" : "_rootJoint"
        },
        {
            "mesh" : 0,
            "name" : "Mesh_0"
        },
        {
            "mesh" : 1,
            "name" : "Mesh_1"
        },
        {
            "children" : [
                0,
                1,
                2
            ],
            "name" : "Node_5"
        },
        {
            "children" : [
                3
            ],
            "name" : "Armature",
            "rotation" : [
                -1,
                0,
                0,
                1.6292050020183524e-07
            ]
        },
        {
            "children" : [
                4
            ],
            "name" : "Collada_visual_scene_group"
        },
        {
            "children" : [
                5
            ],
            "name" : "RootNode_(model_correction_matrix)"
        },
        {
            "children" : [
                6
            ],
            "name" : "RootNode_(gltf_orientation_matrix)",
            "rotation" : [
                -0.7071068286895752,
                0,
                0,
                0.7071068286895752
            ]
        }
    ],
    "materials" : [
        {
            "doubleSided" : true,
            "name" : "Body__m_Body",
            "pbrMetallicRoughness" : {
                "baseColorTexture" : {
                    "index" : 0
                },
                "metallicFactor" : 0,
                "roughnessFactor" : 0.6000000238418579
            }
        },
        {
            "doubleSided" : true,
            "name" : "Body__m_Eye",
            "pbrMetallicRoughness" : {
                "baseColorTexture" : {
                    "index" : 1
                },
                "metallicFactor" : 0,
                "roughnessFactor" : 0.6000000238418579
            }
        }
    ],
    "meshes" : [
        {
            "name" : "Mesh_0",
            "primitives" : [
                {
                    "attributes" : {
                        "POSITION" : 0,
                        "NORMAL" : 1,
                        "TEXCOORD_0" : 2
                    },
                    "indices" : 3,
                    "material" : 0
                }
            ]
        },
        {
            "name" : "Mesh_1",
            "primitives" : [
                {
                    "attributes" : {
                        "POSITION" : 4,
                        "NORMAL" : 5,
                        "TEXCOORD_0" : 6
                    },
                    "indices" : 7,
                    "material" : 1
                }
            ]
        }
    ],
    "textures" : [
        {
            "sampler" : 0,
            "source" : 0
        },
        {
            "sampler" : 0,
            "source" : 1
        }
    ],
    "images" : [
        {
            "bufferView" : 4,
            "mimeType" : "image/png",
            "name" : "Image_0"
        },
        {
            "bufferView" : 9,
            "mimeType" : "image/png",
            "name" : "Image_1"
        }
    ],
    "accessors" : [
        {
            "bufferView" : 0,
            "componentType" : 5126,
            "count" : 2935,
            "max" : [
                14.005500793457031,
                12.071000099182129,
                1.0329005718231201
            ],
            "min" : [
                -14.005496978759766,
                -9.670072555541992,
                -21.154701232910156
            ],
            "type" : "VEC3"
        },
        {
            "bufferView" : 1,
            "componentType" : 5126,
            "count" : 2935,
            "type" : "VEC3"
        },
        {
            "bufferView" : 2,
            "componentType" : 5126,
            "count" : 2935,
            "type" : "VEC2"
        },
        {
            "bufferView" : 3,
            "componentType" : 5123,
            "count" : 12624,
            "type" : "SCALAR"
        },
        {
            "bufferView" : 5,
            "componentType" : 5126,
            "count" : 32,
            "max" : [
                1.9317994117736816,
                9.28342056274414,
                -16.215505599975586
            ],
            "min" : [
                -1.9318008422851562,
                8.068150520324707,
                -17.587907791137695
            ],
            "type" : "VEC3"
        },
        {
            "bufferView" : 6,
            "componentType" : 5126,
            "count" : 32,
            "type" : "VEC3"
        },
        {
            "bufferView" : 7,
            "componentType" : 5126,
            "count" : 32,
            "type" : "VEC2"
        },
        {
            "bufferView" : 8,
            "componentType" : 5123,
            "count" : 108,
            "type" : "SCALAR"
        }
    ],
    "bufferViews" : [
        {
            "buffer" : 0,
            "byteLength" : 35220,
            "byteOffset" : 0
        },
        {
            "buffer" : 0,
            "byteLength" : 35220,
            "byteOffset" : 35220
        },
        {
            "buffer" : 0,
            "byteLength" : 23480,
            "byteOffset" : 70440
        },
        {
            "buffer" : 0,
            "byteLength" : 25248,
            "byteOffset" : 93920
        },
        {
            "buffer" : 0,
            "byteLength" : 806396,
            "byteOffset" : 119168
        },
        {
            "buffer" : 0,
            "byteLength" : 384,
            "byteOffset" : 925564
        },
        {
            "buffer" : 0,
            "byteLength" : 384,
            "byteOffset" : 925948
        },
        {
            "buffer" : 0,
            "byteLength" : 256,
            "byteOffset" : 926332
        },
        {
            "buffer" : 0,
            "byteLength" : 216,
            "byteOffset" : 926588
        },
        {
            "buffer" : 0,
            "byteLength" : 11688,
            "byteOffset" : 926804
        }
    ],
    "samplers" : [
        {
            "magFilter" : 9729,
            "minFilter" : 9987
        }
    ],
    "buffers" : [
        {
            "byteLength" : 938492,
            "uri" : "data:application/octet-stream;base64,"
        }
    ]
}
